<svg xmlns="http://www.w3.org/2000/svg" viewBox="0 0 64 64" fill="none">
  <rect width="64" height="64" rx="14" fill="white" />
  <!-- Swoosh back -->
  <path d="M8,30 C14,22 24,18 32,22 C38,24 42,22 47,17 C50,14 54,13 56,16 C57,18 55,22 52,25 C47,30 42,34 36,36 C30,38 22,40 16,40 C10,40 6,37 8,30Z" fill="#F7941D" />
  <!-- Tooth -->
  <path d="M19,18 C19,8 24,3 30,3 C34,3 36,6 37,10 C38,6 40,3 44,3 C50,3 55,8 55,18 C55,28 53,37 50,44 C48,50 45,55 43,58 C42,60 40,61 38,61 C36,61 35,59 35,55 C35,51 34,49 33,49 C32,49 31,51 31,55 C31,59 30,61 28,61 C26,61 24,60 23,58 C21,55 19,50 17,44 C15,37 19,28 19,18Z" fill="#2E3192" />
  <!-- Swoosh front -->
  <path d="M40,28 C46,26 50,22 53,17 C55,14 57,13 57,16 C56,20 53,25 48,30 C44,34 40,36 37,36 C35,36 34,35 35,33 C35,30 37,29 40,28Z" fill="#F7941D" />
</svg>