<svg xmlns="http://www.w3.org/2000/svg" viewBox="0 0 240 260" fill="none">
  <!-- Swoosh back layer (goes behind the tooth, visible on left) -->
  <path d="M18,115 C35,90 65,72 100,80 C120,84 135,78 152,65 C170,50 190,42 205,50 C215,55 210,65 200,75 C185,90 165,102 140,110 C115,118 85,126 55,128 C30,130 10,125 18,115Z" 
    fill="#F7941D" />
  
  <!-- Main tooth body -->
  <path d="M65,60 C65,25 82,5 100,5 C112,5 118,15 122,28 C126,15 132,5 144,5 C162,5 178,25 178,60 C178,85 172,112 164,135 C156,158 148,175 140,192 C135,202 128,208 122,208 C116,208 112,200 112,188 C112,176 108,168 104,168 C100,168 96,176 96,188 C96,200 92,208 86,208 C80,208 73,202 68,192 C60,175 52,158 46,135 C40,112 65,85 65,60Z" 
    fill="#2E3192" />
  
  <!-- Swoosh front layer (goes over the tooth, visible on right) -->
  <path d="M125,88 C145,82 165,68 180,52 C192,40 202,35 208,42 C212,48 206,60 195,73 C180,90 160,104 140,112 C128,117 120,115 118,108 C116,100 118,92 125,88Z" 
    fill="#F7941D" />
</svg>
